<svg width="1280" height="960" xmlns="http://www.w3.org/2000/svg" viewBox="0 0 1280 960">
    <g class="ctype:gauge;datapoint:AIN1;title:AIN1;minvalue:0;maxvalue:100;colorrule1minvalue:0;colorrule1maxvalue:20;colorrule1color:#00FF00;colorrule2minvalue:20;colorrule2maxvalue:40;colorrule2color:#0000FF;colorrule3minvalue:40;colorrule3maxvalue:60;colorrule3color:#FFFF00;">
        <path class="back" d="M47.55807845564421,35.267675476355336 A21.356997352479173,21.356997352479173 0 0 0 4.8440837506858445,35.267675476355336 L10.183332773299734,35.267675476355336 A16.01774832986525,16.01774832986525 0 0 1 42.21882943303028,35.267675476355336 L47.55807845564421,35.267675476355336 z" fill="#0F4534" stroke-width="0" stroke="#FFF"></path>
        <path class="path" d="M26.201081103165006,13.910678123876133 A21.356997352479173,21.356997352479173 0 0 0 4.8440837506858445,35.267675476355336 L10.183332773299734,35.267675476355336 A16.01774832986525,16.01774832986525 0 0 1 26.201081103165006,19.24992714649007 L26.201081103165006,13.910678123876133 z" fill="#399988" stroke-width="0" stroke="#FFF"></path>
        <line x1="3.9898042471631125" y1="35.267675263097615" x2="11.03761327260613" y2="35.267675263097615" stroke-width="2" stroke="#AAAAAA"></line>
        <line x1="48.412358104500996" y1="35.267675263097615" x2="41.36454907905802" y2="35.267675263097615" stroke-width="2" stroke="#AAAAAA"></line>
        <text class="title" font-size="20" font-family="Helvetica, Arial, sans-serif" x="600.9748522329537" y="334.0510076104893" transform="matrix(0.08542798818718829,0,0,0.08542798818718829,-27.274691106201654,-1.8124290876884004) ">AIN1</text>
        <polygon class="pointer" points="26.20108413696289,8.571429550647736 25.533660888671875,35.267668068408966 26.868471145629883,35.267668068408966 " fill="#AA0000"></polygon>
        <path d="M20.861832080551114,36.12195557237825 A5.3392490226139255,5.3392490226139255 0 0 1 31.54033012577898,36.12195557237825 L20.861832080551114,36.12195557237825 z" fill="#0F4534"></path>
        <text class="minvalue" font-size="20" font-family="Helvetica, Arial, sans-serif" x="325.97485223295365" y="434.0510076104894" transform="matrix(0.08542798818718829,0,0,0.08542798818718829,-27.274691106201654,-1.8124290876884004) ">0</text>
        <text class="maxvalue" font-size="20" font-family="Helvetica, Arial, sans-serif" x="885.9748522329537" y="434.0510076104894" transform="matrix(0.08542798818718829,0,0,0.08542798818718829,-27.274691106201654,-1.8124290876884004) ">100</text>
        <text class="text" font-size="20" font-family="Helvetica, Arial, sans-serif" x="595.9748522329537" y="434.0510076104894" fill="#AAAAAA" transform="matrix(0.08542798818718829,0,0,0.08542798818718829,-27.274691106201654,-1.8124290876884004) ">50</text>
    </g>
</svg>