<svg width="27" height="50" x="0" y="0" overflow="hidden" xmlns="http://www.w3.org/2000/svg" xmlns:se="http://svg-edit.googlecode.com" xmlns:xlink="http://www.w3.org/1999/xlink" viewBox="0 0 27 50"><g class="ctype:graphic;datapoint:AIN1;datapoint1:AIN2;action:None;colorrule1minvalue:0;colorrule1maxvalue:20;colorrule1color:#00FF00;colorrule2minvalue:20;colorrule2maxvalue:40;colorrule2color:#0000FF;colorrule3minvalue:40;colorrule3maxvalue:60;colorrule3color:#FFFF00;blinkcolorruleminvalue:60;blinkcolorrulemaxvalue:100;blinkcolorrulecolor:#FF0000;" id="svg_107" stroke="null"><rect id="svg_115" height="50.70887276568864" width="27.03353750455567" y="0.12261607339382863" x="0.0915704049393753" stroke-width="2.5" fill="#fff" stroke="#545454"></rect><path id="svg_114" class="color" d="M0.09156669921878802,50.83149000000003 C0.09156669921878802,50.83149000000003 3.2818666992187673,47.47329000000002 3.2818666992187673,47.47329000000002 C3.2818666992187673,47.47329000000002 23.598996699218787,3.144999999999982 23.598996699218787,3.144999999999982 C23.598996699218787,3.144999999999982 27.125106699218804,0.12261999999998352 27.125106699218804,0.12261999999998352 C27.125106699218804,0.12261999999998352 27.125106699218804,50.83149000000003 27.125106699218804,50.83149000000003 C27.125106699218804,50.83149000000003 0.09156669921878802,50.83149000000003 0.09156669921878802,50.83149000000003 L0.09156669921878802,50.83149000000003 z" stroke-width="2.5" fill="#005fbf" stroke="#545454"></path><path id="svg_113" d="M27.125106699218804,0.12261999999998352 C27.125106699218804,0.12261999999998352 23.9348166992188,3.4808199999999943 23.9348166992188,3.4808199999999943 C23.9348166992188,3.4808199999999943 3.6176866992187797,47.809109999999976 3.6176866992187797,47.809109999999976 C3.6176866992187797,47.809109999999976 0.09156669921878802,50.83149000000003 0.09156669921878802,50.83149000000003 C0.09156669921878802,50.83149000000003 0.09156669921878802,0.12261999999998352 0.09156669921878802,0.12261999999998352 C0.09156669921878802,0.12261999999998352 27.125106699218804,0.12261999999998352 27.125106699218804,0.12261999999998352 z" stroke-width="2.5" fill="#ff5656" stroke="#545454"></path><rect id="svg_112" height="44.16037776134749" width="20.317130499042822" y="3.4808208354839394" x="3.449772648362" stroke-width="2.5" fill="none" stroke="#545454"></rect><line stroke-linecap="null" stroke-linejoin="null" id="svg_111" y2="-2.1282039597281255e-7" x2="-0.000025973277956836682" y1="3.3582020306023423" x1="3.3581787888122108" stroke-opacity="null" stroke-width="2.5" fill="none" stroke="#545454"></line><line stroke-linecap="null" stroke-linejoin="null" id="svg_110" y2="50.70887255286823" x2="27.033514049945097" y1="47.51857979194983" x1="23.5073998053507" stroke-opacity="null" stroke-width="2.5" fill="none" stroke="#545454"></line><line stroke-linecap="null" stroke-linejoin="null" id="svg_109" y2="9.486931701284277" x2="8.143610226609326" y1="4.617536559320797" x1="8.143610226609326" stroke-opacity="null" stroke-width="2.5" fill="none" stroke="#545454"></line><line stroke-linecap="null" stroke-linejoin="null" id="svg_108" y2="7.052228276368453" x2="10.578316760505231" y1="7.052228276368453" x1="5.708921618541808" stroke-opacity="null" stroke-width="2.5" fill="none" stroke="#545454"></line></g></svg>