<svg width="26" height="49" x="0" y="0" overflow="hidden" xmlns="http://www.w3.org/2000/svg" xmlns:se="http://svg-edit.googlecode.com" xmlns:xlink="http://www.w3.org/1999/xlink" viewBox="0 0 26 49"><g class="ctype:graphic;datapoint:AIN1;datapoint1:AIN2;action:None;colorrule1minvalue:0;colorrule1maxvalue:20;colorrule1color:#00FF00;colorrule2minvalue:20;colorrule2maxvalue:40;colorrule2color:#0000FF;colorrule3minvalue:40;colorrule3maxvalue:60;colorrule3color:#FFFF00;blinkcolorruleminvalue:60;blinkcolorrulemaxvalue:100;blinkcolorrulecolor:#FF0000;" id="svg_12" stroke="null"><rect id="svg_20" height="48.928410858393995" width="26.08435088057593" y="0.1183111361363558" x="0.08837064680608364" stroke-width="2.5" fill="#fff" stroke="#545454"></rect><path id="svg_19" class="color" d="M0.08837556640628463,49.04671999999999 C0.08837556640628463,49.04671999999999 3.1666455664062596,45.80642999999998 3.1666455664062596,45.80642999999998 C3.1666455664062596,45.80642999999998 22.7704155664062,3.034569999999974 22.7704155664062,3.034569999999974 C22.7704155664062,3.034569999999974 26.172725566406257,0.11831000000000813 26.172725566406257,0.11831000000000813 C26.172725566406257,0.11831000000000813 26.172725566406257,49.04671999999999 26.172725566406257,49.04671999999999 C26.172725566406257,49.04671999999999 0.08837556640628463,49.04671999999999 0.08837556640628463,49.04671999999999 z" stroke-width="2.5" fill="#005fbf" stroke="#545454"></path><path id="svg_18" d="M26.172725566406257,0.11831000000000813 C26.172725566406257,0.11831000000000813 23.094445566406193,3.358600000000024 23.094445566406193,3.358600000000024 C23.094445566406193,3.358600000000024 3.490675566406253,46.13045999999997 3.490675566406253,46.13045999999997 C3.490675566406253,46.13045999999997 0.08837556640628463,49.04671999999999 0.08837556640628463,49.04671999999999 C0.08837556640628463,49.04671999999999 0.08837556640628463,0.11831000000000813 0.08837556640628463,0.11831000000000813 C0.08837556640628463,0.11831000000000813 26.172725566406257,0.11831000000000813 26.172725566406257,0.11831000000000813 z" stroke-width="2.5" fill="#007fff" stroke="#545454"></path><rect id="svg_17" height="42.609842990457814" width="19.603766644826834" y="3.358604469127556" x="3.32866154956389" stroke-width="2.5" fill="none" stroke="#545454"></rect><line stroke-linecap="null" stroke-linejoin="null" id="svg_16" y2="8.517804417351726e-8" x2="-0.000009650016295381647" y1="3.240290987935907" x1="3.240283682974905" stroke-opacity="null" stroke-width="2.5" fill="none" stroke="#545454"></line><line stroke-linecap="null" stroke-linejoin="null" id="svg_15" y2="48.92841094357203" x2="26.084343660793024" y1="45.85013397839373" x1="22.682036390222265" stroke-opacity="null" stroke-width="2.5" fill="none" stroke="#545454"></line><line stroke-linecap="null" stroke-linejoin="null" id="svg_14" y2="6.804614626319619" x2="15.479757902930942" y1="6.804614626319619" x1="10.781334271257037" stroke-opacity="null" stroke-width="2.5" fill="none" stroke="#545454"></line><line stroke-linecap="null" stroke-linejoin="null" id="svg_13" y2="45.86532293693136" x2="22.84405032780171" y1="3.2554799464735993" x1="3.240283682974905" fill-opacity="null" stroke-opacity="null" stroke-width="2.5" fill="none" stroke="#545454"></line></g></svg>