<svg width="48" height="48" x="0" y="0" overflow="hidden" xmlns="http://www.w3.org/2000/svg" xmlns:se="http://svg-edit.googlecode.com" xmlns:xlink="http://www.w3.org/1999/xlink" viewBox="0 0 48 48"><g class="ctype:graphic;datapoint:AIN1;datapoint1:AIN2;action:None;colorrule1minvalue:0;colorrule1maxvalue:20;colorrule1color:#00FF00;colorrule2minvalue:20;colorrule2maxvalue:40;colorrule2color:#0000FF;colorrule3minvalue:40;colorrule3maxvalue:60;colorrule3color:#FFFF00;blinkcolorruleminvalue:60;blinkcolorrulemaxvalue:100;blinkcolorrulecolor:#FF0000;" id="svg_58" stroke="null"><g id="svg_60" stroke="null"><path id="svg_66" d="M48.35740999999996,48.125009999999975 C48.35740999999996,48.125009999999975 48.35740999999996,0.017229999999983647 48.35740999999996,0.017229999999983647 C48.35740999999996,0.017229999999983647 0.24963000000002472,47.74621000000002 0.24963000000002472,47.93561 C0.24963000000002472,48.125009999999975 48.35740999999996,48.125009999999975 48.35740999999996,48.125009999999975 z" stroke-opacity="null" stroke-width="0" fill="#7f7f7f" stroke="#6d6d6d"></path><path id="svg_65" d="M0,0 C0,0 0,48.10777999999999 0,48.10777999999999 C0,48.10777999999999 48.10778000000005,0.37880000000001246 48.10778000000005,0.1893999999999778 C48.10778000000005,0 0,0 0,0 z" stroke-opacity="null" stroke-width="0" fill="#dbd9d9" stroke="#6d6d6d"></path><rect id="svg_64" height="48.29718708260501" width="48.29718708260501" y="0.11193434710264683" x="0.15492642102537957" stroke-opacity="null" stroke-width="4" fill="none" stroke="#6d6d6d"></rect><line stroke-linecap="null" stroke-linejoin="null" id="svg_63" y2="0.35923028532312173" x2="48.127352565898605" y1="48.4865864292189" x1="-7.370172170340084e-7" fill-opacity="null" stroke-opacity="null" stroke-width="4" fill="none" stroke="#6d6d6d"></line><line stroke-linecap="null" stroke-linejoin="null" id="svg_62" y2="48.3242045398631" x2="48.367196613785836" y1="0.19685123694722506" x1="0.23984046988994123" fill-opacity="null" stroke-opacity="null" stroke-width="4" fill="none" stroke="#6d6d6d"></line><rect class="color" transform="matrix(0.2840970641334078,-0.0007261385489793441,0.0007261385489793441,0.2840970641334078,189.25021819765348,112.4762032838484) " id="svg_61" height="136.00148999999993" width="136.00148999999993" y="-379.99513708112363" x="-647.8030958567625" fill-opacity="null" stroke-opacity="null" stroke-width="4" fill="#b5b5b5" stroke="#6d6d6d"></rect></g><text xml:space="preserve" text-anchor="start" font-family="Helvetica, Arial, sans-serif" font-size="69" id="svg_59" y="-286.06358194898553" x="-626.7862022434832" stroke-opacity="null" stroke-width="0" fill="#333333" transform="matrix(0.28409799211964504,0,0,0.28409799211964504,189.38465622943056,112.3325424036326) " stroke="#6d6d6d">AS</text></g></svg>