<svg width="38" height="48" x="0" y="0" overflow="hidden" xmlns="http://www.w3.org/2000/svg" xmlns:se="http://svg-edit.googlecode.com" xmlns:xlink="http://www.w3.org/1999/xlink" viewBox="0 0 38 48"><g class="ctype:graphic;datapoint:AIN1;datapoint1:AIN2;action:None;colorrule1minvalue:0;colorrule1maxvalue:20;colorrule1color:#00FF00;colorrule2minvalue:20;colorrule2maxvalue:40;colorrule2color:#0000FF;colorrule3minvalue:40;colorrule3maxvalue:60;colorrule3color:#FFFF00;blinkcolorruleminvalue:60;blinkcolorrulemaxvalue:100;blinkcolorrulecolor:#FF0000;" id="svg_79" stroke="null"><path id="svg_87" d="M6.22932556640626,47.313319999999976 C6.22932556640626,47.313319999999976 1.3348455664062158,44.05033000000003 1.2339755664062295,43.99005 C1.3348455664062158,44.05033000000003 -0.000014433593719331837,42.41883999999999 -0.000014433593719331837,41.08398 C-0.000014433593719331837,39.749120000000005 0.14830556640629314,2.669719999999984 0.14830556640629314,2.669719999999984 C0.14830556640629314,2.669719999999984 0.14830556640629314,0 3.4112955664062383,0 C6.674285566406297,0 16.01829556640621,0 16.01829556640621,0 C16.01829556640621,0 17.056515566406233,0 18.24305556640627,0.7415899999999738 C19.429595566406306,1.4831800000000044 22.69258556640625,4.746170000000006 22.69258556640625,4.746170000000006 C22.69258556640625,4.746170000000006 6.22932556640626,47.313319999999976 6.22932556640626,47.313319999999976 z" stroke-width="4" fill="#7f3f00" stroke="#6d6d6d"></path><rect id="svg_86" height="4.449529205925333" width="21.65437235420044" y="10.2339183215214" x="17.204831177247797" stroke-opacity="null" stroke-width="4" fill="#9e9e9e" stroke="#6d6d6d"></rect><path class="color" id="svg_85" d="M8.899135566406244,3.930499999999995 C8.899135566406244,3.930499999999995 6.081105566406222,3.633860000000027 6.081105566406222,7.045169999999985 C6.081105566406222,10.456470000000024 5.93278556640621,44.569529999999986 5.93278556640621,44.569529999999986 C5.93278556640621,44.569529999999986 5.6361555664062735,48.12914999999998 8.750825566406206,48.12914999999998 C11.865495566406253,48.12914999999998 20.467915566406305,48.12914999999998 20.467915566406305,48.12914999999998 C20.467915566406305,48.12914999999998 23.285945566406212,47.83251999999999 23.285945566406212,44.86615999999998 C23.285945566406212,41.89981 23.434265566406225,7.193480000000022 23.434265566406225,7.193480000000022 C23.434265566406225,7.193480000000022 23.582585566406237,3.930499999999995 21.20950556640628,3.930499999999995 C18.83641556640623,3.930499999999995 7.415965566406271,4.078809999999976 8.899135566406244,3.930499999999995 z" stroke-width="4" fill="#ff7f00" stroke="#6d6d6d"></path><ellipse ry="1.0382239263306037" rx="1.0382239263306037" id="svg_84" cy="17.366662104427576" cx="20.3666652222729" stroke-width="4" fill="#b5b5b5" stroke="#6d6d6d"></ellipse><ellipse ry="1.0382239263306037" rx="1.0382239263306037" id="svg_83" cy="17.366662104427576" cx="10.382220618058227" stroke-width="4" fill="#b5b5b5" stroke="#6d6d6d"></ellipse><ellipse ry="1.0382239263306037" rx="1.0382239263306037" id="svg_82" cy="7.874334466630955" cx="20.218348471971353" stroke-width="4" fill="#b5b5b5" stroke="#6d6d6d"></ellipse><ellipse ry="1.0382239263306037" rx="1.0382239263306037" id="svg_81" cy="7.874334466630955" cx="10.233903867756908" stroke-width="4" fill="#b5b5b5" stroke="#6d6d6d"></ellipse><ellipse ry="3.7820982677184416" rx="3.7820982677184416" id="svg_80" cy="12.384523436963264" cx="15.3508595624088" stroke-opacity="null" stroke-width="4" fill="#b5b5b5" stroke="#6d6d6d"></ellipse></g></svg>