<svg width="26" height="48" x="0" y="0" overflow="hidden" xmlns="http://www.w3.org/2000/svg" xmlns:se="http://svg-edit.googlecode.com" xmlns:xlink="http://www.w3.org/1999/xlink" viewBox="0 0 26 48"><g class="ctype:graphic;datapoint:AIN1;datapoint1:AIN2;action:None;colorrule1minvalue:0;colorrule1maxvalue:20;colorrule1color:#00FF00;colorrule2minvalue:20;colorrule2maxvalue:40;colorrule2color:#0000FF;colorrule3minvalue:40;colorrule3maxvalue:60;colorrule3color:#FFFF00;blinkcolorruleminvalue:60;blinkcolorrulemaxvalue:100;blinkcolorrulecolor:#FF0000;" id="svg_160" stroke="null"><path class="color" id="svg_168" d="M7.265156699218778,48.10525948242184 C7.265156699218778,48.10525948242184 7.265156699218778,45.247529482421896 7.265156699218778,45.247529482421896 C7.265156699218778,45.247529482421896 3.454836699218731,23.933559482421856 3.454836699218731,23.933559482421856 C3.454836699218731,23.933559482421856 7.741446699218727,3.5721694824218844 7.627746699218733,3.4533394824218817 C7.741446699218727,3.5721694824218844 7.741446699218727,0.11906948242187809 7.741446699218727,0.11906948242187809 C7.741446699218727,0.11906948242187809 26.197676699218732,0.11906948242187809 26.197676699218732,0.11906948242187809 C26.197676699218732,0.11906948242187809 26.316756699218786,47.867119482421856 26.316756699218786,47.867119482421856 C26.316756699218786,47.867119482421856 7.265156699218778,48.105269482421875 7.265156699218778,48.105269482421875 L7.265156699218778,48.10525948242184 z" stroke-opacity="null" stroke-width="0" fill="#e5e5e5" stroke="#545454"></path><rect id="svg_167" height="47.946352239756095" width="26.15616453795351" y="0.19884658528917498" x="0.08658147849985198" stroke-width="2.5" fill="none" stroke="#545454"></rect><path id="svg_166" d="M7.860526699218781,0.23813948242190008 C7.860526699218781,0.23813948242190008 7.860526699218781,3.3340194824218656 7.860526699218781,3.3340194824218656 C7.860526699218781,3.3340194824218656 3.335766699218766,23.81447948242186 3.335766699218766,23.81447948242186 C3.335766699218766,23.81447948242186 7.265156699218778,44.890309482421856 7.265156699218778,44.890309482421856 C7.265156699218778,44.890309482421856 7.265156699218778,48.10525948242184 7.265156699218778,48.10525948242184 C7.265156699218778,48.10525948242184 0.23988669921880043,48.10525948242184 0.23988669921880043,48.10525948242184 C0.23988669921880043,48.10525948242184 0.12081669921872161,-0.000010517578118651727 0.12081669921872161,-0.000010517578118651727 C0.12081669921872161,-0.000010517578118651727 7.860526699218781,0.23813948242190008 7.860526699218781,0.23813948242190008 z" stroke-opacity="null" stroke-width="2.5" fill="#cecece" stroke="#545454"></path><rect id="svg_165" height="41.754606476263774" width="19.21029283986234" y="3.3741028991180997" x="3.2618354108734593" stroke-width="2.5" fill="none" stroke="#545454"></rect><line stroke-linecap="null" stroke-linejoin="null" id="svg_164" y2="0.08291019529440291" x2="-0.000024907609031288303" y1="3.2581641276680102" x1="3.1752314062199503" stroke-opacity="null" stroke-width="2.5" fill="none" stroke="#545454"></line><line stroke-linecap="null" stroke-linejoin="null" id="svg_163" y2="48.0292624350505" x2="25.560780559911223" y1="45.012770603931756" x1="22.22676214482749" stroke-opacity="null" stroke-width="2.5" fill="none" stroke="#545454"></line><line stroke-linecap="null" stroke-linejoin="null" id="svg_162" y2="47.74804590055345" x2="0.35895805079951515" y1="45.009379411537054" x1="3.335770073153526" stroke-opacity="null" stroke-width="2.5" fill="none" stroke="#545454"></line><line stroke-linecap="null" stroke-linejoin="null" id="svg_161" y2="0.5953565168409227" x2="26.078606589055767" y1="3.334023005857375" x1="22.387360348144284" stroke-opacity="null" stroke-width="2.5" fill="none" stroke="#545454"></line></g></svg>