<svg width="47" height="47" x="0" y="0" overflow="hidden" xmlns="http://www.w3.org/2000/svg" xmlns:se="http://svg-edit.googlecode.com" xmlns:xlink="http://www.w3.org/1999/xlink" viewBox="0 0 47 47"><g class="ctype:graphic;datapoint:AIN1;datapoint1:AIN2;action:None;colorrule1minvalue:0;colorrule1maxvalue:20;colorrule1color:#00FF00;colorrule2minvalue:20;colorrule2maxvalue:40;colorrule2color:#0000FF;colorrule3minvalue:40;colorrule3maxvalue:60;colorrule3color:#FFFF00;blinkcolorruleminvalue:60;blinkcolorrulemaxvalue:100;blinkcolorrulecolor:#FF0000;" id="svg_121" stroke="null"><g id="svg_123" stroke="null"><path id="svg_129" d="M47.02675999999997,46.800749999999994 C47.02675999999997,46.800749999999994 47.02675999999997,0.01675000000000182 47.02675999999997,0.01675000000000182 C47.02675999999997,0.01675000000000182 0.2427599999999757,46.43236999999999 0.2427599999999757,46.61655999999999 C0.2427599999999757,46.800749999999994 47.02675999999997,46.800749999999994 47.02675999999997,46.800749999999994 z" stroke-opacity="null" stroke-width="0" fill="#7f7f7f" stroke="#6d6d6d"></path><path id="svg_128" d="M0,0 C0,0 0,46.78399999999999 0,46.78399999999999 C0,46.78399999999999 46.78399999999999,0.36838000000000193 46.78399999999999,0.18419000000000096 C46.78399999999999,0 0,0 0,0 z" stroke-opacity="null" stroke-width="0" fill="#dbd9d9" stroke="#6d6d6d"></path><rect id="svg_127" height="46.9681911336181" width="46.9681911336181" y="0.1088539234417567" x="0.15066427053602638" stroke-opacity="null" stroke-width="4" fill="none" stroke="#6d6d6d"></rect><line stroke-linecap="null" stroke-linejoin="null" id="svg_126" y2="0.3493450077991156" x2="46.80303092828922" y1="47.15237844856745" x1="2.503253426766605e-7" fill-opacity="null" stroke-opacity="null" stroke-width="4" fill="none" stroke="#6d6d6d"></line><line stroke-linecap="null" stroke-linejoin="null" id="svg_125" y2="46.9944648292327" x2="47.03627517632697" y1="0.1914341512688793" x1="0.2332417355586358" fill-opacity="null" stroke-opacity="null" stroke-width="4" fill="none" stroke="#6d6d6d"></line><rect class="color" transform="matrix(0.27627955197257315,-0.0007061573606681858,0.0007061573606681858,0.27627955197257315,118.93811578275489,26.14716729230748) " id="svg_124" height="136.00149" width="136.00149" y="-78.12740459659767" x="-412.9274790448278" fill-opacity="null" stroke-opacity="null" stroke-width="4" fill="#b5b5b5" stroke="#6d6d6d"></rect></g><text xml:space="preserve" text-anchor="start" font-family="Helvetica, Arial, sans-serif" font-size="69" id="svg_122" y="15.25303876625594" x="-391.47450432073794" stroke-opacity="null" stroke-width="0" fill="#333333" transform="matrix(0.27628045442336985,0,0,0.27628045442336985,119.0857818195794,25.991431628509346) " stroke="#6d6d6d">FU</text></g></svg>