<svg width="20" height="51" x="0" y="0" overflow="hidden" xmlns="http://www.w3.org/2000/svg" xmlns:se="http://svg-edit.googlecode.com" xmlns:xlink="http://www.w3.org/1999/xlink" viewBox="0 0 20 51"><g class="ctype:graphic;datapoint:AIN1;datapoint1:AIN2;action:None;colorrule1minvalue:0;colorrule1maxvalue:20;colorrule1color:#00FF00;colorrule2minvalue:20;colorrule2maxvalue:40;colorrule2color:#0000FF;colorrule3minvalue:40;colorrule3maxvalue:60;colorrule3color:#FFFF00;blinkcolorruleminvalue:60;blinkcolorrulemaxvalue:100;blinkcolorrulecolor:#FF0000;" id="svg_185" stroke="null"><rect class="color" id="svg_188" height="9.2508096576891" width="20.142893753368863" y="2.2737367544323206e-13" x="7.152557373046875e-7" stroke-width="4" fill="#007f00" stroke="#565656"></rect><text font-weight="bold" xml:space="preserve" text-anchor="start" font-family="Helvetica, Arial, sans-serif" font-size="35" id="svg_187" y="-1731.7079503027453" x="-1257.0748515166079" stroke-opacity="null" stroke-width="0" fill="#ffffff" transform="matrix(0.149206631447668,0,0,0.149206631447668,191.09549445215745,264.77021733260557) " stroke="#565656">Frost</text><path id="svg_186" d="M10.375440000000026,9.14891 C10.176490000000058,14.321460000000002 8.684409999999957,14.619880000000023 7.49073999999996,15.51513 C6.297080000000051,16.410379999999975 4.0092200000000275,17.305630000000008 3.810269999999946,20.289789999999982 C3.6113299999999526,23.273959999999988 6.098129999999969,24.46762000000001 9.480189999999993,25.56182000000001 C12.862240000000043,26.65600999999998 15.547990000000027,27.451790000000017 15.547990000000027,30.734370000000013 C15.547990000000027,34.01695000000001 11.768050000000017,34.613789999999995 10.275960000000055,35.40956 C8.783879999999954,36.20533999999998 5.899189999999976,35.906920000000014 5.1034100000000535,39.48792000000003 C4.307630000000017,43.06891999999999 8.982830000000035,43.16838999999999 10.176490000000058,45.45625000000001 C11.370159999999942,47.74410999999998 10.375440000000026,51.42457999999999 10.282879999999977,51.33445999999998 " fill-opacity="null" stroke-opacity="null" stroke-width="4" fill="none" stroke="#565656"></path></g></svg>