<svg width="48" height="48" x="0" y="0" overflow="hidden" xmlns="http://www.w3.org/2000/svg" xmlns:se="http://svg-edit.googlecode.com" xmlns:xlink="http://www.w3.org/1999/xlink" viewBox="0 0 48 48"><g class="ctype:graphic;datapoint:AIN1;datapoint1:AIN2;action:None;colorrule1minvalue:0;colorrule1maxvalue:20;colorrule1color:#00FF00;colorrule2minvalue:20;colorrule2maxvalue:40;colorrule2color:#0000FF;colorrule3minvalue:40;colorrule3maxvalue:60;colorrule3color:#FFFF00;blinkcolorruleminvalue:60;blinkcolorrulemaxvalue:100;blinkcolorrulecolor:#FF0000;" id="svg_82" stroke="null"><path id="svg_96" d="M47.97963000000004,47.91976999999997 C47.97963000000004,47.91976999999997 47.97963000000004,0.3740500000000111 47.97963000000004,0.3740500000000111 C47.97963000000004,0.3740500000000111 0.43389999999999435,47.54539999999997 0.43389999999999435,47.732590000000016 C0.43389999999999435,47.91976999999997 47.97963000000004,47.91976999999997 47.97963000000004,47.91976999999997 z" stroke-opacity="null" stroke-width="0" fill="#7f7f7f" stroke="#6d6d6d"></path><path id="svg_95" d="M0.18718999999998687,0.35700000000002774 C0.18718999999998687,0.35700000000002774 0.18718999999998687,47.90273000000002 0.18718999999998687,47.90273000000002 C0.18718999999998687,47.90273000000002 47.732920000000036,0.7313800000000015 47.732920000000036,0.5441900000000146 C47.732920000000036,0.35700000000002774 0.18718999999998687,0.35700000000002774 0.18718999999998687,0.35700000000002774 z" stroke-opacity="null" stroke-width="0" fill="#dbd9d9" stroke="#6d6d6d"></path><rect id="svg_94" height="47.73291549993123" width="47.73291549993123" y="0.4676317038882871" x="0.340307741994593" stroke-opacity="null" stroke-width="4" fill="none" stroke="#6d6d6d"></rect><line stroke-linecap="null" stroke-linejoin="null" id="svg_93" y2="0.7120384040624685" x2="47.75225659076432" y1="48.27710715480691" x1="0.18719064780771077" fill-opacity="null" stroke-opacity="null" stroke-width="4" fill="none" stroke="#6d6d6d"></line><line stroke-linecap="null" stroke-linejoin="null" id="svg_92" y2="48.11662242533225" x2="47.98929846343856" y1="0.5515564823755881" x1="0.4242297126941139" fill-opacity="null" stroke-opacity="null" stroke-width="4" fill="none" stroke="#6d6d6d"></line><rect class="color" transform="matrix(0.28077786668745,-0.0007176548385808024,0.0007176548385808024,0.28077786668745,205.15419949349692,107.65224648197115) " id="svg_91" height="136.00149" width="136.00149" y="-366.3864486141565" x="-711.6885711892409" stroke-opacity="null" stroke-width="4" fill="#b5b5b5" stroke="#6d6d6d"></rect><path opacity="0.85" id="svg_90" d="M0.5615699999999604,39.05907000000002 C0.5615699999999604,39.05907000000002 5.241260000000011,38.85818999999998 5.241260000000011,38.85818999999998 C5.241260000000011,38.85818999999998 42.86603000000002,34.23801000000003 42.86603000000002,34.23801000000003 C42.86603000000002,34.23801000000003 48.29448000000002,34.438890000000015 48.16716999999994,34.62112000000002 C48.29448000000002,34.438890000000015 48.48167000000001,47.696799999999996 48.354349999999954,47.87903 C48.48167000000001,47.696799999999996 0.5615699999999604,48.29943000000003 0.43425000000002,48.48167000000001 C0.5615699999999604,48.29943000000003 0.5615699999999604,39.05907000000002 0.5615699999999604,39.05907000000002 z" stroke-opacity="null" stroke-width="0" fill="#7f7f7f" stroke="#6d6d6d"></path><path id="svg_89" d="M0.5615599999999857,39.479269999999985 C0.5615599999999857,39.479269999999985 5.802819999999997,39.479269999999985 5.802819999999997,39.479269999999985 C5.802819999999997,39.479269999999985 43.614779999999996,34.42520999999999 43.48747000000003,34.624559999999974 C43.614779999999996,34.42520999999999 48.668859999999995,34.42520999999999 48.668859999999995,34.42520999999999 " stroke-opacity="null" stroke-width="4" fill="#333333" stroke="#6d6d6d"></path><path opacity="0.85" id="svg_88" d="M0.3743799999999739,8.532800000000009 C0.3743799999999739,8.532800000000009 5.054079999999999,8.714710000000025 5.054079999999999,8.714710000000025 C5.054079999999999,8.714710000000025 42.67884000000004,12.898599999999988 42.67884000000004,12.898599999999988 C42.67884000000004,12.898599999999988 48.107290000000035,12.716679999999997 47.979979999999955,12.551660000000027 C48.107290000000035,12.716679999999997 48.29448000000002,0.7107500000000186 48.16716999999994,0.5457299999999918 C48.29448000000002,0.7107500000000186 0.3743799999999739,0.16503000000000156 0.24706000000003317,0 C0.3743799999999739,0.16503000000000156 0.3743799999999739,8.532800000000009 0.3743799999999739,8.532800000000009 z" stroke-opacity="null" stroke-width="0" fill="#7f7f7f" stroke="#6d6d6d"></path><path id="svg_87" d="M0,8.967649999999992 C0,8.967649999999992 5.241260000000011,8.967649999999992 5.241260000000011,8.967649999999992 C5.241260000000011,8.967649999999992 43.05322000000001,13.272969999999987 42.925899999999956,13.103150000000028 C43.05322000000001,13.272969999999987 48.107290000000035,13.272969999999987 48.107290000000035,13.272969999999987 " stroke-opacity="null" stroke-width="4" fill="#333333" stroke="#6d6d6d"></path><g transform="matrix(0,-0.28077878383172533,0.28077878383172533,0,189.7589745453739,229.12375298657295) " id="svg_84" stroke="null"><line transform="rotate(90 736.0297851562501,-629.618408203125) " stroke-linecap="null" stroke-linejoin="null" id="svg_86" y2="-629.6184410913086" x2="749.3674653918887" y1="-629.6184410913086" x1="722.6921753918887" stroke-width="4" fill="none" stroke="#333333"></line><line transform="rotate(90 722.6963500976564,-629.618408203125) " stroke-linecap="null" stroke-linejoin="null" id="svg_85" y2="-629.6184310913086" x2="736.0339853918887" y1="-629.6184310913086" x1="709.3586953918887" stroke-width="4" fill="none" stroke="#333333"></line></g><line stroke-linecap="null" stroke-linejoin="null" id="svg_83" y2="29.93269205300578" x2="15.34941063420331" y1="18.13985397383277" x1="10.482525969080484" stroke-width="4" fill="none" stroke="#333333"></line></g></svg>