<svg width="48" height="48" x="0" y="0" overflow="hidden" xmlns="http://www.w3.org/2000/svg" xmlns:se="http://svg-edit.googlecode.com" xmlns:xlink="http://www.w3.org/1999/xlink" viewBox="0 0 48 48"><g class="ctype:graphic;datapoint:AIN1;datapoint1:AIN2;action:None;colorrule1minvalue:0;colorrule1maxvalue:20;colorrule1color:#00FF00;colorrule2minvalue:20;colorrule2maxvalue:40;colorrule2color:#0000FF;colorrule3minvalue:40;colorrule3maxvalue:60;colorrule3color:#FFFF00;blinkcolorruleminvalue:60;blinkcolorrulemaxvalue:100;blinkcolorrulecolor:#FF0000;" id="svg_114" stroke="null"><path id="svg_127" d="M47.979600000000005,47.91973999999999 C47.979600000000005,47.91973999999999 47.979600000000005,0.3740500000000111 47.979600000000005,0.3740500000000111 C47.979600000000005,0.3740500000000111 0.43389999999999435,47.54536999999999 0.43389999999999435,47.73255999999998 C0.43389999999999435,47.91973999999999 47.979600000000005,47.91973999999999 47.979600000000005,47.91973999999999 z" stroke-opacity="null" stroke-width="0" fill="#7f7f7f" stroke="#6d6d6d"></path><path id="svg_126" d="M0.18718999999998687,0.35700000000002774 C0.18718999999998687,0.35700000000002774 0.18718999999998687,47.90269999999998 0.18718999999998687,47.90269999999998 C0.18718999999998687,47.90269999999998 47.73288000000002,0.7313800000000015 47.73288000000002,0.5441900000000146 C47.73288000000002,0.35700000000002774 0.18718999999998687,0.35700000000002774 0.18718999999998687,0.35700000000002774 z" stroke-opacity="null" stroke-width="0" fill="#dbd9d9" stroke="#6d6d6d"></path><rect id="svg_125" height="47.73288536940175" width="47.73288536940175" y="0.46763033679167165" x="0.34030559399661797" stroke-opacity="null" stroke-width="4" fill="none" stroke="#6d6d6d"></rect><line stroke-linecap="null" stroke-linejoin="null" id="svg_124" y2="0.712036882688551" x2="47.752224514841146" y1="48.27707560885375" x1="0.18718859646207875" fill-opacity="null" stroke-opacity="null" stroke-width="4" fill="none" stroke="#6d6d6d"></line><line stroke-linecap="null" stroke-linejoin="null" id="svg_123" y2="48.11659098068213" x2="47.98926623788702" y1="0.5515550623029526" x1="0.42422751172182416" fill-opacity="null" stroke-opacity="null" stroke-width="4" fill="none" stroke="#6d6d6d"></line><rect class="color" transform="matrix(0.2807776894515593,-0.0007176543855743173,0.0007176543855743173,0.2807776894515593,250.61573815100436,113.60348574876525) " id="svg_122" height="136.00149" width="136.00149" y="-387.9959522998349" x="-873.5467374281837" stroke-opacity="null" stroke-width="4" fill="#b5b5b5" stroke="#6d6d6d"></rect><path opacity="0.85" id="svg_121" d="M0.5615599999999857,39.05903999999998 C0.5615599999999857,39.05903999999998 5.241260000000011,38.85816 5.241260000000011,38.85816 C5.241260000000011,38.85816 42.865999999999985,34.237990000000025 42.865999999999985,34.237990000000025 C42.865999999999985,34.237990000000025 48.29444999999998,34.43885999999998 48.16713000000004,34.62110000000001 C48.29444999999998,34.43885999999998 48.48163999999997,47.696770000000015 48.35432000000003,47.87900000000002 C48.48163999999997,47.696770000000015 0.5615599999999857,48.29939999999999 0.43425000000002,48.481629999999996 C0.5615599999999857,48.29939999999999 0.5615599999999857,39.05903999999998 0.5615599999999857,39.05903999999998 z" stroke-opacity="null" stroke-width="0" fill="#7f7f7f" stroke="#6d6d6d"></path><path id="svg_120" d="M0.5615599999999857,39.47924999999998 C0.5615599999999857,39.47924999999998 5.802819999999997,39.47924999999998 5.802819999999997,39.47924999999998 C5.802819999999997,39.47924999999998 43.61474999999996,34.425189999999986 43.48743999999999,34.624540000000025 C43.61474999999996,34.425189999999986 48.66881999999998,34.425189999999986 48.66881999999998,34.425189999999986 " stroke-opacity="null" stroke-width="4" fill="#333333" stroke="#6d6d6d"></path><path opacity="0.85" id="svg_119" d="M0.3743799999999739,8.532789999999977 C0.3743799999999739,8.532789999999977 5.054070000000024,8.714699999999993 5.054070000000024,8.714699999999993 C5.054070000000024,8.714699999999993 42.67881,12.898590000000013 42.67881,12.898590000000013 C42.67881,12.898590000000013 48.10726,12.716679999999997 47.97995000000003,12.551649999999995 C48.10726,12.716679999999997 48.29444999999998,0.7107500000000186 48.16713000000004,0.5457200000000171 C48.29444999999998,0.7107500000000186 0.3743799999999739,0.1650200000000268 0.24706000000003317,0 C0.3743799999999739,0.1650200000000268 0.3743799999999739,8.532789999999977 0.3743799999999739,8.532789999999977 z" stroke-opacity="null" stroke-width="0" fill="#7f7f7f" stroke="#6d6d6d"></path><path id="svg_118" d="M0,8.967640000000017 C0,8.967640000000017 5.241260000000011,8.967640000000017 5.241260000000011,8.967640000000017 C5.241260000000011,8.967640000000017 43.05318999999997,13.272960000000012 42.92588000000001,13.103139999999996 C43.05318999999997,13.272960000000012 48.10726,13.272960000000012 48.10726,13.272960000000012 " stroke-opacity="null" stroke-width="4" fill="#333333" stroke="#6d6d6d"></path><g transform="matrix(0,-0.2807786065952558,0.2807786065952558,0,235.17942993459718,202.92012685210366) " id="svg_115" stroke="null"><line transform="rotate(90 642.7054443359376,-791.385009765625) " stroke-linecap="null" stroke-linejoin="null" id="svg_117" y2="-791.3850006325338" x2="656.0431231262206" y1="-791.3850006325338" x1="629.3678331262206" stroke-width="4" fill="none" stroke="#333333"></line><line transform="rotate(90 629.3720092773439,-791.385009765625) " stroke-linecap="null" stroke-linejoin="null" id="svg_116" y2="-791.384990632534" x2="642.7096431262206" y1="-791.384990632534" x1="616.0343531262206" stroke-width="4" fill="none" stroke="#333333"></line></g></g></svg>