<svg width="47" height="47" x="0" y="0" overflow="hidden" xmlns="http://www.w3.org/2000/svg" xmlns:se="http://svg-edit.googlecode.com" xmlns:xlink="http://www.w3.org/1999/xlink" viewBox="0 0 47 47"><g class="ctype:graphic;datapoint:AIN1;datapoint1:AIN2;action:None;colorrule1minvalue:0;colorrule1maxvalue:20;colorrule1color:#00FF00;colorrule2minvalue:20;colorrule2maxvalue:40;colorrule2color:#0000FF;colorrule3minvalue:40;colorrule3maxvalue:60;colorrule3color:#FFFF00;blinkcolorruleminvalue:60;blinkcolorrulemaxvalue:100;blinkcolorrulecolor:#FF0000;" id="svg_247" stroke="null"><rect id="svg_274" height="37.84024178246849" width="37.84024178246849" y="4.882611842899166" x="5.074824244205729" stroke-width="4.5" fill="none" stroke="#515151"></rect><rect id="svg_273" height="47.08232848509904" width="47.43108647387755" y="0.07086587952983336" x="0.12784737068761842" stroke-opacity="null" stroke-width="0" fill="#aad4ff" stroke="#515151"></rect><rect id="svg_272" height="47.60546546826681" width="47.60546546826681" y="0" x="0.09610864991873314" stroke-width="4.5" fill="none" stroke="#515151"></rect><path id="svg_271" d="M0.1278499999999667,47.50195000000002 C0.1278499999999667,47.50195000000002 47.55893000000003,0.07087000000001353 47.55893000000003,0.07087000000001353 C47.55893000000003,0.07087000000001353 47.73330999999996,47.50195000000002 47.73330999999996,47.50195000000002 C47.73330999999996,47.50195000000002 0.1278499999999667,47.50195000000002 0.1278499999999667,47.50195000000002 z" stroke-width="0" fill="#003f7f" stroke="#515151"></path><rect class="color" id="svg_270" height="37.49148379368998" width="37.66586278807923" y="4.779098728039742" x="5.010459213586728" stroke-opacity="null" stroke-width="5" fill="#56aaff" stroke="#515151"></rect><path id="svg_269" d="M37.017920000000004,42.44495999999998 C37.017920000000004,42.44495999999998 37.017920000000004,8.615439999999978 37.017920000000004,8.615439999999978 C37.017920000000004,8.615439999999978 33.18157999999994,8.615439999999978 33.18157999999994,8.615439999999978 C33.18157999999994,8.615439999999978 33.18157999999994,11.579880000000003 33.18157999999994,11.579880000000003 C33.18157999999994,11.579880000000003 34.57660999999996,13.149290000000008 34.57660999999996,13.149290000000008 C34.57660999999996,13.149290000000008 33.00720000000001,14.718700000000013 32.888270000000034,14.647829999999999 C33.00720000000001,14.718700000000013 33.00720000000001,21.868240000000014 33.00720000000001,21.868240000000014 C33.00720000000001,21.868240000000014 34.57660999999996,23.612030000000004 34.45767999999998,23.54115999999999 C34.57660999999996,23.612030000000004 32.83281999999997,25.007060000000024 32.83281999999997,25.007060000000024 C32.83281999999997,25.007060000000024 32.83281999999997,32.85412000000002 32.83281999999997,32.85412000000002 C32.83281999999997,32.85412000000002 34.40223000000003,34.07477 34.40223000000003,34.07477 C34.40223000000003,34.07477 32.83281999999997,35.46980000000002 32.83281999999997,35.644180000000006 C32.83281999999997,35.81855999999999 32.83281999999997,42.61934000000002 32.71388999999999,42.54847000000001 C32.83281999999997,42.61934000000002 37.017920000000004,42.44495999999998 37.017920000000004,42.44495999999998 z" stroke-width="4.5" fill="#6173cc" stroke="#515151"></path><line stroke-linecap="null" stroke-linejoin="null" id="svg_268" y2="4.956592131268792" x2="4.935296635635154" y1="0.07086587952983336" x1="0.04957038389613899" stroke-width="4.5" fill="none" stroke="#515151"></line><line stroke-linecap="null" stroke-linejoin="null" id="svg_267" y2="0.0677532144799784" x2="47.65815026100279" y1="4.953477722429" x1="42.77242400926389" stroke-width="4.5" fill="none" stroke="#515151"></line><line stroke-linecap="null" stroke-linejoin="null" id="svg_266" y2="47.55152481393236" x2="-3.3283890843449626e-7" y1="42.61934051050821" x1="4.932182226795362" stroke-width="4.5" fill="none" stroke="#515151"></line><line stroke-linecap="null" stroke-linejoin="null" id="svg_265" y2="47.50506676224717" x2="47.65815026100279" y1="42.61934051050821" x1="42.77242400926389" stroke-width="4.5" fill="none" stroke="#515151"></line><path id="svg_264" d="M8.942900000000009,39.6549 C8.942900000000009,39.6549 11.384210000000053,42.61934000000002 11.384210000000053,42.61934000000002 C11.384210000000053,42.61934000000002 16.266820000000052,42.61934000000002 16.266820000000052,42.61934000000002 C16.266820000000052,42.61934000000002 18.708120000000008,39.48052000000001 18.708120000000008,39.48052000000001 C18.708120000000008,39.48052000000001 8.942900000000009,39.6549 8.942900000000009,39.6549 z" stroke-width="4.5" fill="none" stroke="#515151"></path><rect opacity="0.67" id="svg_263" height="11.160255640912366" width="47.43108647387755" y="35.99293872371652" x="0.3022263650767627" stroke-opacity="null" stroke-width="0" fill="#073059" stroke="#515151"></rect><g transform="matrix(0,0.17437899438925572,-0.17437899438925572,0,241.55170002296455,87.59818753194553) " id="svg_258" stroke="null"><line transform="rotate(112.5595474243164 -290.29785156249983,1222.1691894531248) " stroke-linecap="null" stroke-linejoin="null" id="svg_262" y2="1199.6495698974613" x2="-275.27833223632797" y1="1244.688769897461" x1="-305.31753223632813" fill-opacity="null" stroke-opacity="null" stroke-width="8" fill="none" stroke="#00007f"></line><g id="svg_259" stroke="null"><line stroke-linecap="null" stroke-linejoin="null" id="svg_261" y2="1247.688769897461" x2="-305.31753223632813" y1="1196.688769897461" x1="-305.31753223632813" fill-opacity="null" stroke-opacity="null" stroke-width="8" fill="none" stroke="#00007f"></line><line stroke-linecap="null" stroke-linejoin="null" id="svg_260" y2="1199.6495698974613" x2="-306.27833223632797" y1="1244.688769897461" x1="-336.31753223632813" fill-opacity="null" stroke-opacity="null" stroke-width="8" fill="none" stroke="#00007f"></line></g></g><g transform="matrix(0,0.17437899438925572,-0.17437899438925572,0,220.62622069625385,66.32395021645632) " id="svg_253" stroke="null"><line transform="rotate(112.5595474243164 -289.2978515624999,1101.1691894531248) " stroke-linecap="null" stroke-linejoin="null" id="svg_257" y2="1078.6495698974609" x2="-274.27833223632797" y1="1123.688769897461" x1="-304.31753223632813" fill-opacity="null" stroke-opacity="null" stroke-width="8" fill="none" stroke="#00007f"></line><g id="svg_254" stroke="null"><line stroke-linecap="null" stroke-linejoin="null" id="svg_256" y2="1126.688769897461" x2="-304.31753223632813" y1="1075.688769897461" x1="-304.31753223632813" fill-opacity="null" stroke-opacity="null" stroke-width="8" fill="none" stroke="#00007f"></line><line stroke-linecap="null" stroke-linejoin="null" id="svg_255" y2="1078.6495698974609" x2="-305.27833223632797" y1="1123.688769897461" x1="-335.31753223632813" fill-opacity="null" stroke-opacity="null" stroke-width="8" fill="none" stroke="#00007f"></line></g></g><g transform="matrix(0,0.17437899438925572,-0.17437899438925572,0,231.08896035960922,76.78668987981168) " id="svg_248" stroke="null"><line transform="rotate(112.5595474243164 -289.29785156249994,1161.169189453125) " stroke-linecap="null" stroke-linejoin="null" id="svg_252" y2="1138.6495698974609" x2="-274.27833223632797" y1="1183.688769897461" x1="-304.31753223632813" fill-opacity="null" stroke-opacity="null" stroke-width="8" fill="none" stroke="#00007f"></line><g id="svg_249" stroke="null"><line stroke-linecap="null" stroke-linejoin="null" id="svg_251" y2="1186.688769897461" x2="-304.31753223632813" y1="1135.688769897461" x1="-304.31753223632813" fill-opacity="null" stroke-opacity="null" stroke-width="8" fill="none" stroke="#00007f"></line><line stroke-linecap="null" stroke-linejoin="null" id="svg_250" y2="1138.6495698974609" x2="-305.27833223632797" y1="1183.688769897461" x1="-335.31753223632813" fill-opacity="null" stroke-opacity="null" stroke-width="8" fill="none" stroke="#00007f"></line></g></g></g></svg>