<svg width="48" height="48" x="0" y="0" overflow="hidden" xmlns="http://www.w3.org/2000/svg" xmlns:se="http://svg-edit.googlecode.com" xmlns:xlink="http://www.w3.org/1999/xlink" viewBox="0 0 48 48"><g class="ctype:graphic;datapoint:AIN1;datapoint1:AIN2;action:None;colorrule1minvalue:0;colorrule1maxvalue:20;colorrule1color:#00FF00;colorrule2minvalue:20;colorrule2maxvalue:40;colorrule2color:#0000FF;colorrule3minvalue:40;colorrule3maxvalue:60;colorrule3color:#FFFF00;blinkcolorruleminvalue:60;blinkcolorrulemaxvalue:100;blinkcolorrulecolor:#FF0000;" id="svg_144" stroke="null"><rect id="svg_156" height="38.36874241571522" width="38.36874241571522" y="4.950805472995512" x="5.145702514732534" stroke-width="4.5" fill="none" stroke="#515151"></rect><rect id="svg_155" height="47.73990991817101" width="48.09353888052783" y="0.071855637006081" x="0.12963304858931224" stroke-opacity="null" stroke-width="0" fill="#aad4ff" stroke="#515151"></rect><rect id="svg_154" height="48.27035336170624" width="48.27035336170624" y="0" x="0.09745104487001299" stroke-width="4.5" fill="none" stroke="#515151"></rect><path id="svg_153" d="M0.12963000000002015,48.16539 C0.12963000000002015,48.16539 48.22316999999998,0.07186000000001513 48.22316999999998,0.07186000000001513 C48.22316999999998,0.07186000000001513 48.39999,48.16539 48.39999,48.16539 C48.39999,48.16539 0.12963000000002015,48.16539 0.12963000000002015,48.16539 z" stroke-width="0" fill="#003f7f" stroke="#515151"></path><rect class="color" id="svg_152" height="38.015113453358396" width="38.19192793453681" y="4.84584662882321" x="5.080438521584824" stroke-opacity="null" stroke-width="5" fill="#56aaff" stroke="#515151"></rect><path id="svg_151" d="M37.53493000000003,43.03777000000002 C37.53493000000003,43.03777000000002 37.53493000000003,8.735770000000002 37.53493000000003,8.735770000000002 C37.53493000000003,8.735770000000002 33.64500999999996,8.735770000000002 33.64500999999996,8.735770000000002 C33.64500999999996,8.735770000000002 33.64500999999996,11.74160999999998 33.64500999999996,11.74160999999998 C33.64500999999996,11.74160999999998 35.059529999999995,13.332940000000008 35.059529999999995,13.332940000000008 C35.059529999999995,13.332940000000008 33.468200000000024,14.924269999999979 33.34761000000003,14.852419999999995 C33.468200000000024,14.924269999999979 33.468200000000024,22.173670000000016 33.468200000000024,22.173670000000016 C33.468200000000024,22.173670000000016 35.059529999999995,23.941809999999975 34.93894,23.869959999999992 C35.059529999999995,23.941809999999975 33.29138999999998,25.356330000000014 33.29138999999998,25.356330000000014 C33.29138999999998,25.356330000000014 33.29138999999998,33.31297999999998 33.29138999999998,33.31297999999998 C33.29138999999998,33.31297999999998 34.88271999999995,34.55068 34.88271999999995,34.55068 C34.88271999999995,34.55068 33.29138999999998,35.96519999999998 33.29138999999998,36.14201000000003 C33.29138999999998,36.31882000000002 33.29138999999998,43.21458999999999 33.170799999999986,43.14273000000003 C33.29138999999998,43.21458999999999 37.53493000000003,43.03777000000002 37.53493000000003,43.03777000000002 z" stroke-width="4.5" fill="#6173cc" stroke="#515151"></path><line stroke-linecap="null" stroke-linejoin="null" id="svg_150" y2="5.025819016635467" x2="5.004226175762483" y1="0.071855637006081" x1="0.050262796133097254" stroke-width="4.5" fill="none" stroke="#515151"></line><line stroke-linecap="null" stroke-linejoin="null" id="svg_149" y2="0.0686994985170486" x2="48.32377406447324" y1="5.022661110001593" x1="43.369810684843856" stroke-width="4.5" fill="none" stroke="#515151"></line><line stroke-linecap="null" stroke-linejoin="null" id="svg_148" y2="48.21565933824331" x2="-2.564314627306885e-7" y1="43.2145890445384" x1="5.001068269128609" stroke-width="4.5" fill="none" stroke="#515151"></line><line stroke-linecap="null" stroke-linejoin="null" id="svg_147" y2="48.168552424167785" x2="48.32377406447324" y1="43.2145890445384" x1="43.369810684843856" stroke-width="4.5" fill="none" stroke="#515151"></line><path id="svg_146" d="M9.067800000000034,40.20873999999998 C9.067800000000034,40.20873999999998 11.543210000000045,43.21458999999999 11.543210000000045,43.21458999999999 C11.543210000000045,43.21458999999999 16.494010000000003,43.21458999999999 16.494010000000003,43.21458999999999 C16.494010000000003,43.21458999999999 18.96941000000004,40.03192999999999 18.96941000000004,40.03192999999999 C18.96941000000004,40.03192999999999 9.067800000000034,40.20873999999998 9.067800000000034,40.20873999999998 z" stroke-width="4.5" fill="none" stroke="#515151"></path><rect opacity="0.67" id="svg_145" height="11.316126795418313" width="48.09353888052783" y="36.495638759758776" x="0.3064475297676381" stroke-opacity="null" stroke-width="0" fill="#073059" stroke="#515151"></rect></g></svg>