<svg width="48" height="48" x="0" y="0" overflow="hidden" xmlns="http://www.w3.org/2000/svg" xmlns:se="http://svg-edit.googlecode.com" xmlns:xlink="http://www.w3.org/1999/xlink" viewBox="0 0 48 48"><g class="ctype:graphic;datapoint:AIN1;datapoint1:AIN2;action:None;colorrule1minvalue:0;colorrule1maxvalue:20;colorrule1color:#00FF00;colorrule2minvalue:20;colorrule2maxvalue:40;colorrule2color:#0000FF;colorrule3minvalue:40;colorrule3maxvalue:60;colorrule3color:#FFFF00;blinkcolorruleminvalue:60;blinkcolorrulemaxvalue:100;blinkcolorrulecolor:#FF0000;" id="svg_15" stroke="null"><rect id="svg_26" height="38.36874769089704" width="38.36874769089704" y="4.950806153664132" x="5.145703272055471" stroke-width="4.5" fill="none" stroke="#515151"></rect><rect id="svg_25" height="47.73991648176129" width="48.0935454927373" y="0.07185564688529666" x="0.12963311627061103" stroke-opacity="null" stroke-width="0" fill="#aad4ff" stroke="#515151"></rect><rect id="svg_24" height="48.2703599982253" width="48.2703599982253" y="0" x="0.09745110812673374" stroke-width="4.5" fill="none" stroke="#515151"></rect><path id="svg_23" d="M0.12963000000002015,48.16539999999998 C0.12963000000002015,48.16539999999998 48.22317999999996,0.07186000000001513 48.22317999999996,0.07186000000001513 C48.22317999999996,0.07186000000001513 48.39999,48.16539999999998 48.39999,48.16539999999998 C48.39999,48.16539999999998 0.12963000000002015,48.16539999999998 0.12963000000002015,48.16539999999998 z" stroke-width="0" fill="#003f7f" stroke="#515151"></path><rect class="color" id="svg_22" height="38.01511867992103" width="38.191933185409034" y="4.845847295061446" x="5.080439269934686" stroke-opacity="null" stroke-width="5" fill="#56aaff" stroke="#515151"></rect><path id="svg_21" d="M37.534940000000006,43.03778 C37.534940000000006,43.03778 37.534940000000006,8.735770000000002 37.534940000000006,8.735770000000002 C37.534940000000006,8.735770000000002 33.645020000000045,8.735770000000002 33.645020000000045,8.735770000000002 C33.645020000000045,8.735770000000002 33.645020000000045,11.74160999999998 33.645020000000045,11.74160999999998 C33.645020000000045,11.74160999999998 35.059529999999995,13.332940000000008 35.059529999999995,13.332940000000008 C35.059529999999995,13.332940000000008 33.468200000000024,14.924269999999979 33.34761000000003,14.852419999999995 C33.468200000000024,14.924269999999979 33.468200000000024,22.173670000000016 33.468200000000024,22.173670000000016 C33.468200000000024,22.173670000000016 35.059529999999995,23.941809999999975 34.93894999999998,23.869959999999992 C35.059529999999995,23.941809999999975 33.29138999999998,25.356330000000014 33.29138999999998,25.356330000000014 C33.29138999999998,25.356330000000014 33.29138999999998,33.31297999999998 33.29138999999998,33.31297999999998 C33.29138999999998,33.31297999999998 34.88271999999995,34.55068 34.88271999999995,34.55068 C34.88271999999995,34.55068 33.29138999999998,35.96519999999998 33.29138999999998,36.14202 C33.29138999999998,36.31882999999999 33.29138999999998,43.21460000000002 33.170799999999986,43.14274 C33.29138999999998,43.21460000000002 37.534940000000006,43.03778 37.534940000000006,43.03778 z" stroke-width="4.5" fill="#6173cc" stroke="#515151"></path><line stroke-linecap="null" stroke-linejoin="null" id="svg_20" y2="5.025819707617416" x2="5.004226913634284" y1="0.07185564688529666" x1="0.050262852902051236" stroke-width="4.5" fill="none" stroke="#515151"></line><line stroke-linecap="null" stroke-linejoin="null" id="svg_19" y2="0.0686995079623216" x2="48.323780758195426" y1="5.022661800549429" x1="43.36981669746319" stroke-width="4.5" fill="none" stroke="#515151"></line><line stroke-linecap="null" stroke-linejoin="null" id="svg_18" y2="48.21566596724267" x2="-2.065730768663343e-7" y1="43.214594985958456" x1="5.00106900656624" stroke-width="4.5" fill="none" stroke="#515151"></line><line stroke-linecap="null" stroke-linejoin="null" id="svg_17" y2="48.168559046690575" x2="48.323780758195426" y1="43.214594985958456" x1="43.36981669746319" stroke-width="4.5" fill="none" stroke="#515151"></line><path id="svg_16" d="M9.067800000000034,40.20875000000001 C9.067800000000034,40.20875000000001 11.543210000000045,43.21460000000002 11.543210000000045,43.21460000000002 C11.543210000000045,43.21460000000002 16.494010000000003,43.21460000000002 16.494010000000003,43.21460000000002 C16.494010000000003,43.21460000000002 18.969420000000014,40.03192999999999 18.969420000000014,40.03192999999999 C18.969420000000014,40.03192999999999 9.067800000000034,40.20875000000001 9.067800000000034,40.20875000000001 z" stroke-width="4.5" fill="none" stroke="#515151"></path></g></svg>