<svg width="48" height="48" x="0" y="0" overflow="hidden" xmlns="http://www.w3.org/2000/svg" xmlns:se="http://svg-edit.googlecode.com" xmlns:xlink="http://www.w3.org/1999/xlink" viewBox="0 0 48 48"><g class="ctype:graphic;datapoint:AIN1;datapoint1:AIN2;action:None;colorrule1minvalue:0;colorrule1maxvalue:20;colorrule1color:#00FF00;colorrule2minvalue:20;colorrule2maxvalue:40;colorrule2color:#0000FF;colorrule3minvalue:40;colorrule3maxvalue:60;colorrule3color:#FFFF00;blinkcolorruleminvalue:60;blinkcolorrulemaxvalue:100;blinkcolorrulecolor:#FF0000;" id="svg_43" stroke="null"><rect id="svg_55" height="38.36873519371248" width="38.36873519371248" y="4.950804541124228" x="5.145703238169972" stroke-width="4.5" fill="none" stroke="#515151"></rect><rect id="svg_54" height="47.739900932268995" width="48.09352982806357" y="0.07185562348098529" x="0.12963471618240874" stroke-opacity="null" stroke-width="0" fill="#aad4ff" stroke="#515151"></rect><rect id="svg_53" height="48.270344275960866" width="48.270344275960866" y="0" x="0.09745271852068527" stroke-width="4.5" fill="none" stroke="#515151"></rect><path id="svg_52" d="M0.12963000000002015,48.16539 C0.12963000000002015,48.16539 48.22316000000001,0.07186000000001513 48.22316000000001,0.07186000000001513 C48.22316000000001,0.07186000000001513 48.39998000000003,48.16539 48.39998000000003,48.16539 C48.39998000000003,48.16539 0.12963000000002015,48.16539 0.12963000000002015,48.16539 z" stroke-width="0" fill="#003f7f" stroke="#515151"></path><rect class="color" id="svg_51" height="38.0151062979179" width="38.191920745815196" y="4.845845716707856" x="5.080439257306693" stroke-opacity="null" stroke-width="5" fill="#56aaff" stroke="#515151"></rect><path id="svg_50" d="M37.53493000000003,43.03777000000002 C37.53493000000003,43.03777000000002 37.53493000000003,8.735760000000028 37.53493000000003,8.735760000000028 C37.53493000000003,8.735760000000028 33.64500999999996,8.735760000000028 33.64500999999996,8.735760000000028 C33.64500999999996,8.735760000000028 33.64500999999996,11.74160999999998 33.64500999999996,11.74160999999998 C33.64500999999996,11.74160999999998 35.059529999999995,13.332940000000008 35.059529999999995,13.332940000000008 C35.059529999999995,13.332940000000008 33.46819000000005,14.924269999999979 33.34761000000003,14.85241000000002 C33.46819000000005,14.924269999999979 33.46819000000005,22.173659999999984 33.46819000000005,22.173659999999984 C33.46819000000005,22.173659999999984 35.059529999999995,23.941809999999975 34.93894,23.869950000000017 C35.059529999999995,23.941809999999975 33.291380000000004,25.356319999999982 33.291380000000004,25.356319999999982 C33.291380000000004,25.356319999999982 33.291380000000004,33.31297000000001 33.291380000000004,33.31297000000001 C33.291380000000004,33.31297000000001 34.882709999999975,34.55066999999997 34.882709999999975,34.55066999999997 C34.882709999999975,34.55066999999997 33.291380000000004,35.96519000000001 33.291380000000004,36.141999999999996 C33.291380000000004,36.31882000000002 33.291380000000004,43.21458000000001 33.17079000000001,43.14273000000003 C33.291380000000004,43.21458000000001 37.53493000000003,43.03777000000002 37.53493000000003,43.03777000000002 z" stroke-width="4.5" fill="#6173cc" stroke="#515151"></path><line stroke-linecap="null" stroke-linejoin="null" id="svg_49" y2="5.025818070644618" x2="5.004226925829471" y1="0.07185562348098529" x1="0.0502644786657811" stroke-width="4.5" fill="none" stroke="#515151"></line><line stroke-linecap="null" stroke-linejoin="null" id="svg_48" y2="0.06869948558602346" x2="48.32376666066614" y1="5.022660164605156" x1="43.36980421350245" stroke-width="4.5" fill="none" stroke="#515151"></line><line stroke-linecap="null" stroke-linejoin="null" id="svg_47" y2="48.21565026279279" x2="0.0000014355620123751578" y1="43.21458091042035" x1="5.001069019790066" stroke-width="4.5" fill="none" stroke="#515151"></line><line stroke-linecap="null" stroke-linejoin="null" id="svg_46" y2="48.168543357583985" x2="48.32376666066614" y1="43.21458091042035" x1="43.36980421350245" stroke-width="4.5" fill="none" stroke="#515151"></line><path id="svg_45" d="M9.067800000000034,40.20873 C9.067800000000034,40.20873 11.543210000000045,43.21458000000001 11.543210000000045,43.21458000000001 C11.543210000000045,43.21458000000001 16.494010000000003,43.21458000000001 16.494010000000003,43.21458000000001 C16.494010000000003,43.21458000000001 18.96941000000004,40.031920000000014 18.96941000000004,40.031920000000014 C18.96941000000004,40.031920000000014 9.067800000000034,40.20873 9.067800000000034,40.20873 z" stroke-width="4.5" fill="none" stroke="#515151"></path><rect opacity="0.67" id="svg_44" height="6.011689460363468" width="37.66147740212331" y="36.49563189032324" x="5.257251937059436" stroke-opacity="null" stroke-width="0" fill="#f41f1f" stroke="#515151"></rect></g></svg>