<svg width="25" height="47" x="0" y="0" overflow="hidden" xmlns="http://www.w3.org/2000/svg" xmlns:se="http://svg-edit.googlecode.com" xmlns:xlink="http://www.w3.org/1999/xlink" viewBox="0 0 25 47"><g class="ctype:graphic;datapoint:AIN1;datapoint1:AIN2;action:None;colorrule1minvalue:0;colorrule1maxvalue:20;colorrule1color:#00FF00;colorrule2minvalue:20;colorrule2maxvalue:40;colorrule2color:#0000FF;colorrule3minvalue:40;colorrule3maxvalue:60;colorrule3color:#FFFF00;blinkcolorruleminvalue:60;blinkcolorrulemaxvalue:100;blinkcolorrulecolor:#FF0000;" id="svg_90" stroke="null"><g id="svg_99" stroke="null"><path class="color" id="svg_101" d="M0.1579000000000406,47.77552000000003 C0.1579000000000406,47.77552000000003 3.1194000000000415,44.577110000000005 3.1194000000000415,44.577110000000005 C3.1194000000000415,44.577110000000005 22.191389999999956,3.116240000000005 22.191389999999956,3.116240000000005 C22.191389999999956,3.116240000000005 25.50825999999995,0.15474999999997863 25.50825999999995,0.15474999999997863 C25.50825999999995,0.15474999999997863 25.50825999999995,47.77552000000003 25.50825999999995,47.77552000000003 C25.50825999999995,47.77552000000003 0.1579000000000406,47.77552000000003 0.1579000000000406,47.77552000000003 z" stroke-opacity="null" stroke-width="0" fill="#7f007f" stroke="#545454"></path><path id="svg_100" d="M25.50825999999995,0.15474999999997863 C25.50825999999995,0.15474999999997863 22.546770000000038,3.3531600000000026 22.546770000000038,3.3531600000000026 C22.546770000000038,3.3531600000000026 3.474770000000035,44.81403 3.474770000000035,44.81403 C3.474770000000035,44.81403 0.1579000000000406,47.77552000000003 0.1579000000000406,47.77552000000003 C0.1579000000000406,47.77552000000003 0.1579000000000406,0.15474999999997863 0.1579000000000406,0.15474999999997863 C0.1579000000000406,0.15474999999997863 25.50825999999995,0.15474999999997863 25.50825999999995,0.15474999999997863 z" stroke-opacity="null" stroke-width="0" fill="#ffaaff" stroke="#545454"></path></g><g id="svg_92" stroke="null"><rect id="svg_98" height="47.69958600412265" width="25.66616876990991" y="0.11533933250109385" x="-5.464585228764918e-7" stroke-width="2.5" fill="none" stroke="#545454"></rect><rect id="svg_97" height="41.5397073947032" width="19.111422927385906" y="3.2742535053509414" x="3.2773711902041214" stroke-width="2.5" fill="none" stroke="#545454"></rect><line stroke-linecap="null" stroke-linejoin="null" id="svg_96" y2="-3.6587488239092636e-7" x2="0.03229873887630674" y1="3.1589114377762826" x1="3.191212911726211" stroke-opacity="null" stroke-width="2.5" fill="none" stroke="#545454"></line><line stroke-linecap="null" stroke-linejoin="null" id="svg_95" y2="47.53827637826737" x2="0.2709741811065669" y1="44.695245093587346" x1="3.350925331809549" stroke-opacity="null" stroke-width="2.5" fill="none" stroke="#545454"></line><line stroke-linecap="null" stroke-linejoin="null" id="svg_94" y2="0.1544287411962273" x2="25.502873574993714" y1="3.2343775227006404" x1="22.304462491279082" stroke-opacity="null" stroke-width="2.5" fill="none" stroke="#545454"></line><line stroke-linecap="null" stroke-linejoin="null" id="svg_93" y2="47.656736311278905" x2="25.621333508005137" y1="44.57678516057581" x1="22.304462491279082" fill-opacity="null" stroke-opacity="null" stroke-width="2.5" fill="none" stroke="#545454"></line></g><line stroke-width="3" stroke-linecap="null" stroke-linejoin="null" id="svg_91" y2="45.00788454879125" x2="3.1140054657865903" y1="3.428559414091694" x1="22.18600492746623" stroke-opacity="null" fill="none" stroke="#545454"></line></g></svg>