<svg width="102" height="102" x="0" y="0" overflow="hidden" xmlns="http://www.w3.org/2000/svg" xmlns:se="http://svg-edit.googlecode.com" xmlns:xlink="http://www.w3.org/1999/xlink" viewBox="0 0 102 102"><g class="ctype:graphic;datapoint:AIN1;datapoint1:AIN2;action:None;colorrule1minvalue:0;colorrule1maxvalue:20;colorrule1color:#00FF00;colorrule2minvalue:20;colorrule2maxvalue:40;colorrule2color:#0000FF;colorrule3minvalue:40;colorrule3maxvalue:60;colorrule3color:#FFFF00;blinkcolorruleminvalue:60;blinkcolorrulemaxvalue:100;blinkcolorrulecolor:#FF0000;" id="svg_36" stroke="null"><g transform="matrix(0.13189718635352765,0.13189718635352765,-0.13189718635352765,0.13189718635352765,135.57183677909205,436.4450234880763) " id="svg_37" stroke="null"><rect id="svg_47" height="193" width="193" y="-1237.6506091747283" x="-1877.6322821924591" stroke-opacity="null" stroke-width="0" fill="#d3d3d3" stroke="#595959"></rect><path id="svg_46" d="M-1877.336388046875,-1045.106777421875 C-1877.336388046875,-1045.106777421875 -1855.836538046875,-1066.106627421875 -1855.836538046875,-1066.106627421875 C-1855.836538046875,-1066.106627421875 -1706.837558046875,-1066.606627421875 -1706.837558046875,-1066.606627421875 C-1706.837558046875,-1066.606627421875 -1705.3375680468753,-1216.105597421875 -1705.8158780468748,-1216.560137421875 C-1705.3375680468753,-1216.105597421875 -1684.8377180468751,-1236.605447421875 -1684.8377180468751,-1236.605447421875 C-1684.8377180468751,-1236.605447421875 -1684.8377180468751,-1044.606777421875 -1685.316018046875,-1045.061317421875 C-1684.8377180468751,-1044.606777421875 -1877.336388046875,-1045.106777421875 -1877.336388046875,-1045.106777421875 z" stroke-opacity="null" stroke-width="0" fill="#7f7f7f" stroke="#595959"></path><g transform="rotate(-45 -1781.314331054687,-1140.5595703125002) " id="svg_38" stroke="null"><g transform="rotate(-45 -1781.314331054687,-1140.5595703125002) " id="svg_40" stroke="null"><rect class="color" id="svg_45" height="150.38728" width="150.38728" y="-1215.5524391747285" x="-1856.2572921924593" stroke-width="4.5" fill="none" stroke="#595959"></rect><rect id="svg_44" height="192.73772" width="192.73772" y="-1236.7276591747284" x="-1877.432512192459" stroke-width="4.5" fill="none" stroke="#595959"></rect><line stroke-linecap="null" stroke-linejoin="null" id="svg_43" y2="-1237.2868991747284" x2="-1684.4890421924592" y1="-1044.5007391747283" x1="-1877.275202192459" stroke-width="4.5" fill="none" stroke="#595959"></line><line stroke-linecap="null" stroke-linejoin="null" id="svg_42" y2="-1043.8322991747284" x2="-1703.747832192459" y1="-1218.2239791747284" x1="-1878.139502192459" stroke-width="4.5" fill="none" stroke="#595959"></line><line stroke-linecap="null" stroke-linejoin="null" id="svg_41" y2="-1063.9594591747284" x2="-1684.981722192459" y1="-1237.2384591747284" x1="-1858.260722192459" stroke-width="4.5" fill="none" stroke="#595959"></line></g><rect id="svg_39" height="74" width="74" y="-1177.5596091747284" x="-1818.314292192459" fill-opacity="null" stroke-opacity="null" stroke-width="4.5" fill="none" stroke="#595959"></rect></g></g></g></svg>