<svg width="30" height="242" x="0" y="0" overflow="hidden" xmlns="http://www.w3.org/2000/svg" xmlns:se="http://svg-edit.googlecode.com" xmlns:xlink="http://www.w3.org/1999/xlink" viewBox="0 0 30 242"><g id="svg_119"><g class="ctype:graphic;datapoint:null;datapoint1:null;action:None;colorrule1minvalue:0;colorrule1maxvalue:20;colorrule1color:#00FF00;colorrule2minvalue:20;colorrule2maxvalue:40;colorrule2color:#0000FF;colorrule3minvalue:40;colorrule3maxvalue:60;colorrule3color:#FFFF00;blinkcolorruleminvalue:60;blinkcolorrulemaxvalue:100;blinkcolorrulecolor:#FF0000;" id="svg_124" stroke="null"><rect id="svg_132" height="50.70887276568864" width="27.03353750455567" y="0.12261988809109425" x="0.09161415474864043" stroke-width="2.5" fill="#fff" stroke="#545454"></rect><path id="svg_131" class="color" d="M0.09159999999997123,50.831500000000005 C0.09159999999997123,50.831500000000005 3.2818999999999505,47.473299999999995 3.2818999999999505,47.473299999999995 C3.2818999999999505,47.473299999999995 23.59902999999997,3.1450100000000134 23.59902999999997,3.1450100000000134 C23.59902999999997,3.1450100000000134 27.125139999999988,0.12263000000001512 27.125139999999988,0.12263000000001512 C27.125139999999988,0.12263000000001512 27.125139999999988,50.831500000000005 27.125139999999988,50.831500000000005 C27.125139999999988,50.831500000000005 0.09159999999997123,50.831500000000005 0.09159999999997123,50.831500000000005 L0.09159999999997123,50.831500000000005 z" stroke-width="2.5" fill="#FF0000" stroke="#545454"></path><path id="svg_130" d="M27.125139999999988,0.12263000000001512 C27.125139999999988,0.12263000000001512 23.934849999999983,3.480830000000026 23.934849999999983,3.480830000000026 C23.934849999999983,3.480830000000026 3.617719999999963,47.80912000000001 3.617719999999963,47.80912000000001 C3.617719999999963,47.80912000000001 0.09159999999997123,50.831500000000005 0.09159999999997123,50.831500000000005 C0.09159999999997123,50.831500000000005 0.09159999999997123,0.12263000000001512 0.09159999999997123,0.12263000000001512 C0.09159999999997123,0.12263000000001512 27.125139999999988,0.12263000000001512 27.125139999999988,0.12263000000001512 z" stroke-width="2.5" fill="#ff5656" stroke="#545454"></path><rect id="svg_129" height="44.16037776134749" width="20.317130499042822" y="3.480824650181205" x="3.449816398171265" stroke-width="2.5" fill="none" stroke="#545454"></rect><line stroke-linecap="null" stroke-linejoin="null" id="svg_128" y2="0.0000036018768696521875" x2="0.000017776531308300036" y1="3.358205845299608" x1="3.358222538621476" stroke-opacity="null" stroke-width="2.5" fill="none" stroke="#545454"></line><line stroke-linecap="null" stroke-linejoin="null" id="svg_127" y2="50.708876367565495" x2="27.033557799754362" y1="47.5185836066471" x1="23.507443555159966" stroke-opacity="null" stroke-width="2.5" fill="none" stroke="#545454"></line><line stroke-linecap="null" stroke-linejoin="null" id="svg_126" y2="9.486935515981543" x2="8.143653976418591" y1="4.617540374018063" x1="8.143653976418591" stroke-opacity="null" stroke-width="2.5" fill="none" stroke="#545454"></line><line stroke-linecap="null" stroke-linejoin="null" id="svg_125" y2="7.052232091065719" x2="10.578360510314496" y1="7.052232091065719" x1="5.708965368351073" stroke-opacity="null" stroke-width="2.5" fill="none" stroke="#545454"></line></g><line fill="none" stroke-width="1.5" x1="3.5625805457433444" y1="53.7501071690931" x2="5.562580605347989" y2="203.7501071690931" id="svg_123" stroke-linejoin="undefined" stroke-linecap="undefined" stroke-dasharray="none" stroke="#ff0000" fill-opacity="1" stroke-opacity="1"></line><line fill="none" stroke-width="1.5" x1="21.563102770685646" y1="53.750090353430096" x2="23.56307960405354" y2="206.75008749240715" id="svg_122" stroke-linejoin="undefined" stroke-linecap="undefined" stroke-dasharray="none" fill-opacity="1" stroke-opacity="1" stroke="#0000ff"></line><path fill="#ff0000" stroke-width="1.5" d="M4.684650000000033,231.24314000000004 L8.965469999999982,229.71587 L0.6887199999999892,229.71587 L-7.588020000000029,229.71587 L-7.588020000000029,228.77040999999997 L-7.588020000000029,227.82496000000003 L0.5937699999999494,227.82496000000003 C5.093740000000025,227.82496000000003 8.775539999999978,227.77703999999994 8.775539999999978,227.71847000000002 C8.775539999999978,227.6599 6.984109999999987,226.97262999999998 4.794599999999946,226.19119999999998 L0.8136500000000525,224.77040999999997 L4.493259999999964,224.77040999999997 L8.172869999999989,224.77040999999997 L13.79245000000003,226.77233 L19.412040000000047,228.77423999999996 L13.781669999999963,230.77233 L8.151309999999967,232.77042000000006 L4.277569999999969,232.77042000000006 L0.4038199999999962,232.77042000000006 L4.684650000000033,231.24314000000004 L4.684650000000033,231.24314000000004 z" id="svg_121" stroke-dasharray="none" stroke-opacity="1" fill-opacity="1" transform="rotate(-90 5.912048339843779,228.77044677734378) " stroke="#ff0000"></path><path fill="#0000ff" stroke-width="1.5" d="M25.68470000000002,231.24314000000004 L29.965509999999995,229.71587 L21.688760000000002,229.71587 L13.412029999999959,229.71587 L13.412029999999959,228.77042000000006 L13.412029999999959,227.82496000000003 L21.593809999999962,227.82496000000003 C26.093790000000013,227.82496000000003 29.775589999999966,227.77703999999994 29.775589999999966,227.71847000000002 C29.775589999999966,227.6599 27.984159999999974,226.97262999999998 25.794650000000047,226.19119999999998 L21.81370000000004,224.77040999999997 L25.49330999999995,224.77040999999997 L29.172919999999976,224.77040999999997 L34.79250000000002,226.77233 L40.412090000000035,228.77424999999994 L34.78171999999995,230.77233 L29.151359999999954,232.77042000000006 L25.277619999999956,232.77042000000006 L21.403869999999984,232.77042000000006 L25.68470000000002,231.24314000000004 L25.68470000000002,231.24314000000004 z" id="svg_120" stroke-dasharray="none" stroke-opacity="1" fill-opacity="1" transform="rotate(90 26.912109374999975,228.77044677734378) " stroke="#0000ff"></path></g></svg>